<?xml version="1.0" encoding="utf-8"?>
<svg xmlns="http://www.w3.org/2000/svg" xmlns:svg="http://www.w3.org/2000/svg" version="1.1" viewBox="0 0 1400 340">
	<title>The titlepage for the Standard Ebooks edition of After the Divorce, by Grazia Deledda</title>
	<g aria-label="AFTER THE DIVORCE">
		<path d="M 224.3728,52.807016 H 208.0921 L 176.9342,130 h 18.90059 l 5.7076,-15.4386 h 29.38012 L 236.63011,130 h 18.90058 z m 0.5614,46.31579 h -17.40351 l 8.60819,-22.45614 h 0.18714 z"/>
		<path d="M 308.08187,52.807016 H 263.45029 V 130 h 17.59064 V 99.029239 h 24.98246 V 83.590642 H 281.04093 V 68.245613 h 27.04094 z"/>
		<path d="m 312.01315,68.245613 h 18.33918 V 130 h 17.59064 V 68.245613 h 18.33919 V 52.807016 h -54.26901 z"/>
		<path d="M 421.7807,52.807016 H 377.61696 V 130 H 421.7807 V 114.5614 H 395.2076 V 99.029239 h 25.45029 V 83.590642 H 395.2076 V 68.245613 h 26.5731 z"/>
		<path d="M 436.89328,52.807016 V 130 h 17.59064 V 99.497075 L 478.06287,130 h 22.36257 l -26.5731,-31.906433 c 9.4503,-2.994152 15.81287,-10.760234 15.81287,-22.362574 0,-15.157895 -10.8538,-22.923977 -25.16959,-22.923977 z m 17.59064,34.245615 V 66.842104 h 2.05848 c 6.64328,0 14.59649,0.467836 14.59649,10.105263 0,9.637428 -7.95321,10.105264 -14.59649,10.105264 z"/>
		<path d="m 530.11256,68.245613 h 18.33918 V 130 h 17.59064 V 68.245613 h 18.33919 V 52.807016 h -54.26901 z"/>
		<path d="M 613.30701,99.029239 H 638.1959 V 130 h 17.59065 V 52.807016 H 638.1959 V 83.590642 H 613.30701 V 52.807016 H 595.71637 V 130 h 17.59064 z"/>
		<path d="M 716.15205,52.807016 H 671.98831 V 130 h 44.16374 v -15.4386 h -26.5731 V 99.029239 h 25.4503 V 83.590642 h -25.4503 V 68.245613 h 26.5731 z"/>
		<path d="M 761.84939,52.807016 V 130 h 22.36258 c 21.23976,0 38.92398,-16.09357 38.92398,-38.643276 0,-22.45614 -17.77778,-38.549708 -38.92398,-38.549708 z M 779.44004,114.2807 V 68.526315 h 2.71345 c 13.09941,0 21.9883,10.011696 21.9883,22.923977 -0.0936,12.912278 -8.98245,22.830408 -21.9883,22.830408 z"/>
		<path d="M 853.51902,52.807016 H 835.92837 V 130 h 17.59065 z"/>
		<path d="m 885.90204,130 h 13.84795 L 932.12426,52.807016 H 912.288 L 892.82602,103.52047 873.36403,52.807016 h -19.83626 z"/>
		<path d="m 933.65791,91.356724 c 0,22.549706 16.09357,40.046786 38.92398,40.046786 22.17544,0 38.83041,-17.49708 38.83041,-40.046786 0,-22.549708 -17.40351,-39.953217 -38.83041,-39.953217 -21.23977,0 -38.92398,17.403509 -38.92398,39.953217 z m 18.99416,0 c 0,-11.508772 6.36257,-23.017544 19.92982,-23.017544 13.66082,0 19.83626,11.508772 19.83626,23.017544 0,11.508776 -5.80117,23.017546 -19.83626,23.017546 -14.40936,0 -19.92982,-11.50877 -19.92982,-23.017546 z"/>
		<path d="M 1024.174,52.807016 V 130 h 17.5906 V 99.497075 L 1065.3436,130 h 22.3625 L 1061.133,98.093567 c 9.4503,-2.994152 15.8129,-10.760234 15.8129,-22.362574 0,-15.157895 -10.8538,-22.923977 -25.1696,-22.923977 z m 17.5906,34.245615 V 66.842104 h 2.0585 c 6.6433,0 14.5965,0.467836 14.5965,10.105263 0,9.637428 -7.9532,10.105264 -14.5965,10.105264 z"/>
		<path d="m 1137.3187,114.09357 c -17.6842,0 -25.4503,-12.35088 -25.4503,-22.736846 0,-10.292397 7.7661,-22.643275 25.4503,-22.643275 8.9825,0 15.1579,4.77193 15.1579,4.77193 l 7.4854,-14.97076 c 0,0 -8.6082,-7.111112 -25.3567,-7.111112 -21.8948,0 -41.8246,17.964913 -41.8246,40.140352 0,22.081871 20.0234,39.859651 41.8246,39.859651 16.7485,0 25.3567,-7.11111 25.3567,-7.11111 l -7.4854,-14.97076 c 0,0 -6.1754,4.77193 -15.1579,4.77193 z"/>
		<path d="m 1215.9474,52.807016 h -44.1637 V 130 h 44.1637 v -15.4386 h -26.5731 V 99.029239 h 25.4503 V 83.590642 h -25.4503 V 68.245613 h 26.5731 z"/>
	</g>
	<g aria-label="GRAZIA DELEDDA">
		<path d="m 401.76152,257.57895 h -26.73685 v 10.17544 h 13.33334 c 0,7.08772 -6.24562,11.15789 -12.56141,11.15789 -8.14035,0 -14.73684,-8 -14.73684,-17.82456 0,-10.03509 6.59649,-18.10526 14.73684,-18.10526 5.12281,0 9.54386,2.03508 12.91228,7.43859 l 8.63158,-9.47368 c -5.05263,-6.10526 -12.14035,-9.89474 -22.31579,-9.89474 -16.2807,0 -28.21052,13.40351 -28.21052,30.03509 0,16.5614 12.63158,29.96491 28.21052,29.96491 11.36842,0 23.57895,-6.24561 26.73685,-20.91228 z"/>
		<path d="M 412.52467,232.10526 V 290 h 13.19298 V 267.12281 L 443.40186,290 h 16.77193 l -19.92982,-23.92982 c 7.08772,-2.24562 11.85965,-8.07018 11.85965,-16.77193 0,-11.36842 -8.14035,-17.19299 -18.87719,-17.19299 z m 13.19298,25.68421 v -15.15789 h 1.54386 c 4.98246,0 10.94737,0.35088 10.94737,7.57895 0,7.22807 -5.96491,7.57894 -10.94737,7.57894 z"/>
		<path d="M 497.22971,232.10526 H 485.01919 L 461.65077,290 h 14.17543 l 4.28071,-11.57895 h 22.03508 L 506.4227,290 h 14.17543 z m 0.42106,34.73685 H 484.59813 L 491.05427,250 h 0.14036 z"/>
		<path d="m 576.41941,232.10526 h -47.64912 v 11.57895 H 553.3317 L 524.70012,290 h 49.82456 v -11.57895 h -26.80702 z"/>
		<path d="M 599.983,232.10526 H 586.79002 V 290 H 599.983 Z"/>
		<path d="M 642.84924,232.10526 H 630.63872 L 607.2703,290 h 14.17543 l 4.28071,-11.57895 h 22.03508 L 652.04223,290 h 14.17543 z m 0.42106,34.73685 H 630.21766 L 636.6738,250 h 0.14036 z"/>
		<path d="M 697.59594,232.10526 V 290 h 16.77193 c 15.92983,0 29.19298,-12.07018 29.19298,-28.98246 0,-16.8421 -13.33333,-28.91228 -29.19298,-28.91228 z m 13.19298,46.10527 v -34.31579 h 2.03509 c 9.82456,0 16.49123,7.50877 16.49123,17.19298 -0.0702,9.68421 -6.73684,17.12281 -16.49123,17.12281 z"/>
		<path d="m 787.52795,232.10526 h -33.1228 V 290 h 33.1228 v -11.57895 h -19.92982 v -11.64912 h 19.08772 v -11.57895 h -19.08772 v -11.50877 h 19.92982 z"/>
		<path d="M 813.30537,232.10526 H 800.11239 V 290 h 33.12281 v -11.57895 h -19.92983 z"/>
		<path d="M 877.84595,232.10526 H 844.72314 V 290 h 33.12281 v -11.57895 h -19.92983 v -11.64912 h 19.08772 v -11.57895 h -19.08772 v -11.50877 h 19.92983 z"/>
		<path d="M 890.43035,232.10526 V 290 h 16.77193 c 15.92983,0 29.19299,-12.07018 29.19299,-28.98246 0,-16.8421 -13.33334,-28.91228 -29.19299,-28.91228 z m 13.19299,46.10527 v -34.31579 h 2.03508 c 9.82456,0 16.49123,7.50877 16.49123,17.19298 -0.0702,9.68421 -6.73684,17.12281 -16.49123,17.12281 z"/>
		<path d="M 947.23956,232.10526 V 290 h 16.77193 c 15.92982,0 29.19298,-12.07018 29.19298,-28.98246 0,-16.8421 -13.33333,-28.91228 -29.19298,-28.91228 z m 13.19298,46.10527 v -34.31579 h 2.03509 c 9.82456,0 16.49123,7.50877 16.49123,17.19298 -0.0702,9.68421 -6.73685,17.12281 -16.49123,17.12281 z"/>
		<path d="m 1033.4523,232.10526 h -12.2105 L 997.87338,290 h 14.17542 l 4.2807,-11.57895 h 22.0351 L 1042.6453,290 h 14.1755 z m 0.4211,34.73685 h -13.0526 L 1027.2769,250 h 0.1403 z"/>
	</g>
</svg>
